<svg width="39" height="39" viewBox="0 0 39 39" fill="none" xmlns="http://www.w3.org/2000/svg">
<path d="M17.7034 0.536198C15.447 0.710243 12.8115 1.44993 10.7292 2.4942C10.3935 2.65581 10.12 2.78012 10.12 2.76148C10.12 2.72418 11.2202 2.17719 11.7548 1.95341C11.9848 1.86018 12.1651 1.76694 12.1526 1.75451C12.1091 1.71721 11.1084 2.16476 10.3687 2.55635C9.16901 3.19037 7.92583 4.0233 6.91886 4.86244C6.44024 5.26648 4.71223 6.96962 4.71223 7.04421C4.71223 7.06908 4.76195 7.05664 4.82411 7.01313C4.88006 6.96962 4.84898 7.01935 4.74952 7.13124C4.53818 7.35501 4.44495 7.40473 4.62521 7.18718C4.68736 7.11259 4.65007 7.13124 4.53818 7.23069C4.33306 7.42338 4.25847 7.59743 4.44495 7.44824C4.5071 7.40473 4.48846 7.44203 4.40765 7.53527C4.23982 7.72174 4.1528 7.76525 4.28333 7.59121C4.35171 7.50419 4.34549 7.5104 4.22739 7.60364C4.08442 7.72796 4.0347 7.86471 4.17145 7.79012C4.22117 7.75904 4.22117 7.77769 4.15902 7.84606C4.05956 7.97038 4.00362 7.98903 4.06578 7.87092C4.09064 7.83363 4.05335 7.85228 3.97876 7.91443C3.81714 8.0574 3.79228 8.19415 3.95389 8.06983C4.04713 7.98903 4.05335 7.99524 3.97254 8.09469C3.92281 8.15064 3.87309 8.18793 3.85444 8.16928C3.81093 8.12577 3.65553 8.26252 3.65553 8.33711C3.65553 8.37441 3.70526 8.36198 3.76742 8.31847C3.86065 8.23766 3.86687 8.24388 3.79228 8.33711C3.74255 8.39927 3.67418 8.43657 3.6431 8.43035C3.6058 8.42414 3.56229 8.45522 3.54364 8.50494C3.525 8.5671 3.54364 8.57332 3.59959 8.53602C3.67418 8.49251 3.67418 8.50494 3.59959 8.59196C3.50013 8.71628 3.43797 8.73493 3.50635 8.61683C3.53743 8.5671 3.51878 8.5671 3.45041 8.62926C3.32609 8.72871 3.30744 8.85303 3.42554 8.78466C3.46905 8.75979 3.48149 8.76601 3.45041 8.79709C3.41933 8.82817 3.36338 8.85303 3.3323 8.85303C3.29501 8.85303 3.2515 8.89033 3.23285 8.94005C3.2142 8.996 3.23285 9.00843 3.28879 8.97735C3.33852 8.94627 3.35717 8.95248 3.32609 8.98356C3.29501 9.01464 3.23907 9.03951 3.20799 9.03951C3.17069 9.03951 3.12718 9.0768 3.10853 9.12653C3.08989 9.18247 3.10853 9.1949 3.16448 9.16382C3.2142 9.13275 3.23285 9.13896 3.20177 9.17004C3.17069 9.20112 3.11475 9.22598 3.08367 9.22598C3.04637 9.22598 3.00286 9.26328 2.98422 9.31301C2.96557 9.36895 2.98422 9.38138 3.03394 9.3503C3.08989 9.31922 3.10232 9.32544 3.07124 9.37516C3.04637 9.41246 3.00286 9.43111 2.97178 9.41246C2.9407 9.39381 2.88476 9.43111 2.85368 9.49948C2.76666 9.66109 2.76666 9.71082 2.8599 9.65488C2.90341 9.63001 2.90963 9.63623 2.88476 9.68596C2.8599 9.72325 2.81639 9.7419 2.78531 9.72325C2.75423 9.70461 2.69829 9.7419 2.66721 9.81027C2.58018 9.97189 2.58018 10.0216 2.67342 9.96567C2.71693 9.94081 2.72315 9.94702 2.69829 9.99675C2.67342 10.034 2.62991 10.0527 2.59883 10.034C2.52424 9.98432 2.26939 10.4878 2.32533 10.5748C2.3502 10.6183 2.34398 10.6246 2.29425 10.5997C2.13886 10.5002 1.08838 12.9493 0.678128 14.3603C0.305176 15.6532 -0.0491284 17.6236 0.00681442 18.1333C0.025462 18.3571 0.0316779 18.3509 0.0378938 18.0836C0.0565414 17.6858 0.286529 16.1878 0.392198 15.7837C0.491652 15.4108 0.473005 15.5413 0.29896 16.5607C-0.0366967 18.5374 -0.0366967 20.9864 0.29896 22.9631C0.367335 23.336 0.435709 23.7463 0.454357 23.8644C0.485436 24.0819 0.485436 24.0819 0.423278 23.8954C0.342471 23.6406 0.124916 22.3415 0.0565414 21.6888C0.025462 21.3407 0.000598546 21.2599 0.000598546 21.4402C-0.0180491 22.0369 0.40463 24.4362 0.485436 24.2124C0.5103 24.1316 0.547595 24.2 0.597322 24.4238C0.640833 24.604 0.659481 24.7657 0.640833 24.7843C0.622185 24.803 0.609754 24.7657 0.609754 24.7035C0.609754 24.6413 0.591106 24.604 0.572459 24.6227C0.392198 24.803 2.09535 29.0484 2.29425 28.9241C2.34398 28.8992 2.3502 28.9054 2.32533 28.9489C2.26939 29.036 2.52424 29.5394 2.59883 29.4897C2.62991 29.4711 2.67342 29.4897 2.69829 29.527C2.72315 29.5767 2.71693 29.583 2.67342 29.5581C2.58018 29.5022 2.58018 29.5519 2.66721 29.7135C2.69829 29.7819 2.75423 29.8192 2.78531 29.8005C2.81639 29.7819 2.8599 29.8005 2.88476 29.8378C2.90963 29.8875 2.90341 29.8938 2.8599 29.8689C2.75423 29.8067 2.76666 29.8565 2.91584 30.1051C2.99043 30.2294 3.07124 30.3164 3.0961 30.2978C3.12718 30.2791 3.17069 30.2978 3.19556 30.3351C3.22663 30.3848 3.2142 30.391 3.15826 30.3599C3.10853 30.3289 3.08989 30.3413 3.10853 30.3972C3.12718 30.447 3.17069 30.4843 3.20177 30.4843C3.23907 30.4843 3.29501 30.5091 3.32609 30.5402C3.35717 30.5713 3.33852 30.5775 3.28879 30.5464C3.23285 30.5153 3.2142 30.5278 3.23285 30.5837C3.2515 30.6334 3.29501 30.6645 3.3323 30.6583C3.36338 30.6521 3.43176 30.6894 3.48149 30.7515C3.55608 30.8448 3.54986 30.851 3.45041 30.7702C3.39446 30.7267 3.34474 30.7142 3.34474 30.7515C3.34474 30.8199 3.53743 30.994 3.57472 30.9629C3.59337 30.9504 3.62445 30.9629 3.6431 30.9877C3.66796 31.0126 3.64931 31.0126 3.6058 30.9877C3.49392 30.9194 3.51256 31.0437 3.63688 31.1431C3.73012 31.2177 3.73634 31.2177 3.68661 31.1369C3.63688 31.0561 3.6431 31.0561 3.73634 31.1307C3.84822 31.2239 3.8793 31.2923 3.77985 31.2302C3.67418 31.168 3.71147 31.3048 3.82336 31.3918C3.9166 31.4664 3.92281 31.4664 3.87309 31.3856C3.82336 31.3048 3.82957 31.3048 3.92281 31.3793C4.0347 31.4726 4.06578 31.541 3.96632 31.4788C3.86065 31.4166 3.89795 31.5534 4.00983 31.6404C4.10307 31.715 4.10929 31.715 4.05956 31.6342C4.00983 31.5534 4.01605 31.5534 4.10929 31.628C4.22117 31.7212 4.25225 31.7896 4.1528 31.7274C4.12172 31.7088 4.09064 31.715 4.09064 31.7461C4.09064 31.8207 4.24604 31.9512 4.28955 31.9139C4.3082 31.8953 4.37036 31.945 4.43873 32.0196C4.53197 32.1315 4.53818 32.1439 4.44495 32.0755C4.24604 31.9201 4.33928 32.1066 4.56926 32.3242C4.72466 32.4609 4.74952 32.4733 4.65628 32.3615C4.44495 32.1252 4.52575 32.1501 4.74952 32.3925C4.84898 32.4982 4.89249 32.5666 4.85519 32.5417C4.81168 32.5168 4.77439 32.5231 4.77439 32.5479C4.77439 32.6163 6.43402 34.2511 6.91886 34.6551C7.73314 35.3389 9.62276 36.6504 9.62276 36.5261C9.62276 36.5137 9.45494 36.3956 9.24981 36.2712C9.04469 36.1407 8.87686 36.0226 8.87686 36.004C8.87686 35.9853 8.95145 36.0226 9.0509 36.0848C10.4743 37.0296 12.6375 37.9557 14.5582 38.4406C16.3546 38.8943 17.2496 39 19.3195 39C20.8611 39 21.2154 38.9814 22.0545 38.857C24.7398 38.4468 27.5742 37.4087 29.5944 36.0848C29.6876 36.0226 29.7622 35.9853 29.7622 36.004C29.7622 36.0226 29.5944 36.1407 29.3892 36.2712C29.1841 36.3956 29.0163 36.5137 29.0163 36.5261C29.0163 36.6131 30.3962 35.6932 31.254 35.0343C31.9067 34.5308 34.2998 32.1998 34.2998 32.0631C34.2998 32.0134 34.2687 32.0196 34.1941 32.0755C34.1009 32.1439 34.1071 32.1377 34.2003 32.0196C34.3308 31.8704 34.393 31.8393 34.3246 31.9574C34.2998 32.0009 34.3371 31.9823 34.4117 31.9201C34.5733 31.7772 34.5981 31.6466 34.4427 31.7647C34.3495 31.8331 34.3557 31.8269 34.4489 31.7088C34.5795 31.5596 34.6479 31.5285 34.5733 31.6528C34.5422 31.7026 34.5608 31.7026 34.6292 31.6404C34.7411 31.5534 34.7784 31.4166 34.6727 31.4788C34.5733 31.541 34.6043 31.4726 34.7162 31.3793C34.8095 31.3048 34.8157 31.3048 34.766 31.3856C34.7162 31.4664 34.7224 31.4664 34.8157 31.3918C34.9276 31.3048 34.9649 31.168 34.8592 31.2302C34.7597 31.2923 34.7908 31.2239 34.9027 31.1307C34.9959 31.0561 35.0022 31.0561 34.9524 31.1369C34.9027 31.2177 34.9089 31.2177 35.0022 31.1431C35.1265 31.0437 35.1451 30.9194 35.0332 30.9877C34.9835 31.0126 34.9711 31.0064 35.0022 30.9753C35.0332 30.9442 35.0892 30.9194 35.1265 30.9194C35.1576 30.9194 35.2011 30.8821 35.2197 30.8323C35.2384 30.7826 35.2197 30.764 35.1762 30.7888C35.0705 30.8572 35.0954 30.7888 35.2135 30.6956C35.3067 30.621 35.313 30.621 35.2632 30.7018C35.2135 30.7826 35.2197 30.7826 35.313 30.708C35.4373 30.6086 35.4559 30.4843 35.344 30.5526C35.2943 30.5775 35.2819 30.5713 35.313 30.5402C35.344 30.5091 35.4 30.4843 35.4373 30.4843C35.4683 30.4843 35.5119 30.447 35.5305 30.3972C35.5492 30.3413 35.5305 30.3289 35.4808 30.3599C35.4248 30.391 35.4124 30.3848 35.4435 30.3351C35.4683 30.2978 35.5119 30.2791 35.5429 30.2978C35.574 30.3164 35.63 30.2791 35.661 30.2108C35.7481 30.0491 35.7481 29.9994 35.6548 30.0554C35.6051 30.0802 35.5927 30.074 35.6237 30.0429C35.6548 30.0119 35.7108 29.987 35.7481 29.987C35.7791 29.987 35.8227 29.9497 35.8413 29.9C35.8599 29.844 35.8413 29.8316 35.7916 29.8627C35.7356 29.8938 35.7232 29.8875 35.7543 29.8378C35.7791 29.8005 35.8227 29.7819 35.8537 29.8005C35.8848 29.8192 35.9408 29.7819 35.9718 29.7135C36.0589 29.5519 36.0589 29.5022 35.9656 29.5581C35.9221 29.583 35.9159 29.5767 35.9408 29.527C35.9656 29.4897 36.0091 29.4711 36.0402 29.4897C36.1148 29.5394 36.4318 28.9116 36.3759 28.8246C36.351 28.7811 36.3572 28.7749 36.4069 28.7998C36.5002 28.8619 37.0845 27.6312 37.532 26.4502C37.849 25.5986 38.4085 23.5598 38.396 23.2863C38.396 23.2117 38.3339 23.4106 38.2655 23.7276C38.1971 24.0446 38.1225 24.2933 38.1101 24.2746C38.0914 24.256 38.1225 24.057 38.1785 23.8208C38.6944 21.5396 38.7192 18.4006 38.2406 16.0386C38.1598 15.6159 38.0977 15.2616 38.1101 15.2429C38.1287 15.2305 38.1971 15.4791 38.2655 15.7962C38.3339 16.1132 38.396 16.3121 38.396 16.2375C38.4085 15.9951 37.8988 14.0868 37.6128 13.2974C37.2585 12.3215 36.9726 11.675 36.9104 11.7123C36.8794 11.731 36.8731 11.6937 36.8856 11.6377C36.9166 11.5072 36.1459 10.034 36.0526 10.034C36.0153 10.034 35.9656 10.0092 35.9345 9.9781C35.9035 9.94702 35.9159 9.94081 35.9656 9.96567C36.0589 10.0216 36.0589 9.97189 35.9718 9.81027C35.9408 9.7419 35.8848 9.70461 35.8537 9.72325C35.8227 9.7419 35.7791 9.72325 35.7543 9.68596C35.7232 9.63623 35.7356 9.63001 35.7916 9.66109C35.8413 9.69217 35.8599 9.67974 35.8413 9.6238C35.8227 9.57407 35.7791 9.53678 35.7418 9.53678C35.7108 9.53678 35.6548 9.51191 35.6237 9.48083C35.5927 9.44975 35.6051 9.44354 35.6548 9.4684C35.7481 9.52435 35.7481 9.47462 35.661 9.31301C35.63 9.24463 35.574 9.20734 35.5429 9.22598C35.5119 9.24463 35.4683 9.22598 35.4435 9.18869C35.4124 9.13896 35.4248 9.13275 35.4808 9.16382C35.5305 9.1949 35.5492 9.18247 35.5305 9.12653C35.5119 9.0768 35.4683 9.03951 35.4311 9.03951C35.4 9.03951 35.344 9.01464 35.313 8.98356C35.2819 8.95248 35.2943 8.94627 35.344 8.97113C35.4559 9.03951 35.4373 8.91519 35.313 8.81573C35.2197 8.74115 35.2135 8.74115 35.2632 8.82195C35.313 8.90276 35.3067 8.90276 35.2135 8.82817C35.0954 8.73493 35.0705 8.66656 35.1762 8.73493C35.2197 8.75979 35.2384 8.74115 35.2197 8.69142C35.2011 8.64169 35.1576 8.6044 35.1203 8.6044C35.0892 8.6044 35.0332 8.57953 35.0022 8.54845C34.9711 8.51737 34.9835 8.51116 35.0332 8.53602C35.1451 8.6044 35.1265 8.48008 35.0022 8.38062C34.9089 8.30603 34.9027 8.30603 34.9524 8.38684C35.0022 8.46765 34.9959 8.46765 34.9027 8.39306C34.7908 8.29982 34.7597 8.23144 34.8592 8.2936C34.9649 8.35576 34.9276 8.21901 34.8157 8.13199C34.7224 8.0574 34.7162 8.0574 34.766 8.13821C34.8157 8.21901 34.8095 8.21901 34.7162 8.14442C34.6043 8.05118 34.5733 7.98281 34.6727 8.04497C34.7784 8.10713 34.7411 7.97038 34.6292 7.88336C34.536 7.80877 34.5298 7.80877 34.5795 7.88957C34.6292 7.97038 34.623 7.97038 34.5298 7.89579C34.4179 7.80255 34.3868 7.73417 34.4862 7.79633C34.5235 7.81498 34.5484 7.80877 34.5484 7.77769C34.5484 7.70309 34.393 7.57256 34.3495 7.60986C34.3308 7.6285 34.2687 7.57878 34.2003 7.50419C34.1071 7.3923 34.1009 7.37987 34.1941 7.44824C34.393 7.60364 34.2998 7.41717 34.0698 7.19961C33.8584 7.00692 33.8522 7.00692 33.989 7.17475L34.1444 7.36122L33.9392 7.18096C33.7466 7.0007 33.6782 6.91368 33.8025 6.98827C33.8398 7.00692 33.8647 7.0007 33.8647 6.97584C33.8647 6.90746 32.205 5.27269 31.7202 4.86866C31.1608 4.39625 30.2284 3.71872 29.5571 3.29604C28.9417 2.90444 27.4623 2.10881 27.3629 2.10881C27.3318 2.10881 27.6799 2.30772 28.1274 2.54392C28.5812 2.78012 29.2214 3.14686 29.5508 3.35199C30.1662 3.74359 31.3161 4.5703 31.3161 4.62624C31.3161 4.64489 31.0551 4.46463 30.7319 4.22842C28.028 2.2207 24.7335 0.940228 21.3583 0.585922C20.5316 0.498901 18.5115 0.474037 17.7034 0.536198ZM17.2683 13.0612C18.0701 14.1303 19.0087 15.3673 19.3568 15.821L19.9846 16.6477L22.3964 13.8817L24.8081 11.1218H26.2689C27.655 11.1218 27.7234 11.128 27.6364 11.2275C27.5866 11.2897 26.1508 12.9306 24.4538 14.8762C22.7569 16.8218 21.377 18.4441 21.3894 18.4814C21.4143 18.5374 26.4243 25.1883 28.3387 27.6995L28.8236 28.3398H25.8835H22.9434L20.6621 25.3562C19.4065 23.7152 18.3561 22.385 18.3374 22.3974C18.3125 22.4098 17.1315 23.7525 15.7143 25.381L13.1347 28.3336L11.6616 28.3398H10.1884L13.5761 24.4673C15.4346 22.3415 16.9451 20.5699 16.9326 20.5264C16.914 20.4891 15.3103 18.3695 13.3585 15.821C11.4067 13.2725 9.80924 11.1716 9.80924 11.1529C9.80924 11.1343 11.1581 11.1218 12.8115 11.1218H15.8076L17.2683 13.0612Z" fill="white"/>
<path d="M13.2719 12.891C13.2967 12.9407 15.6712 16.0424 18.5367 19.7906L23.7518 26.6094H24.5537H25.3617L25.1815 26.367C25.0882 26.2364 22.7449 23.1347 19.9726 19.4736L14.9377 12.8101H14.0799C13.3838 12.8101 13.2346 12.8226 13.2719 12.891Z" fill="white"/>
</svg>
