<svg width="39" height="39" viewBox="0 0 39 39" fill="none" xmlns="http://www.w3.org/2000/svg">
<path d="M17.9361 0.054081C12.1051 0.480064 6.63439 3.69133 3.293 8.63931C-2.45615 17.159 -0.490627 28.89 7.73181 35.0831C11.0732 37.6063 14.4965 38.8187 18.706 38.9825C23.456 39.1628 27.5181 37.9503 31.1379 35.247C36.1664 31.495 39 25.8425 39 19.5347C39 14.3246 37.2146 9.81896 33.6767 6.11617C29.5 1.72525 24.0293 -0.371902 17.9361 0.054081ZM26.0603 7.32859C26.1586 7.39412 26.2241 8.24609 26.2241 9.27829V11.1297L24.7663 11.228C22.1948 11.3918 21.7853 11.8506 21.6706 14.7342L21.5887 16.5856H23.8163H26.0603L25.962 17.0279C25.9129 17.2901 25.7491 18.2895 25.6017 19.2889L25.3232 21.0912L23.4724 21.1403L21.6379 21.1895V26.5798V31.9866H19.2793C17.281 31.9866 16.9042 31.9538 16.8224 31.7244C16.7732 31.577 16.7241 29.1521 16.7241 26.3177V21.1895L14.8077 21.1403L12.8749 21.0912L12.8258 18.8302L12.7767 16.5856H14.7586H16.7241L16.7405 14.8161C16.7568 12.5551 16.8387 11.7687 17.1499 10.7692C17.6741 9.08168 19.0172 7.80373 20.8025 7.29582C21.556 7.08283 25.7 7.1156 26.0603 7.32859Z" fill="white"/>
</svg>
