<svg width="56" height="38" viewBox="0 0 56 38" fill="none" xmlns="http://www.w3.org/2000/svg">
<path d="M15.415 0.165634C8.1054 0.577091 6.02303 0.906254 4.28063 1.93489C1.39081 3.62186 0.498362 6.41977 0.073388 15.4718C-0.224094 22.1374 0.413367 30.2842 1.43331 32.6295C2.24076 34.5634 3.60067 35.9623 5.30057 36.6618C7.76542 37.6904 18.1773 38.1842 32.6264 37.9373C50.3478 37.6493 52.5577 37.1967 54.5126 33.5347C55.4475 31.7655 56 26.4165 56 18.8046C56 10.3697 55.49 6.50206 54.2151 4.23905C52.9402 2.05833 51.2828 1.19427 47.5005 0.659382C43.2083 0.0833435 22.8095 -0.204678 15.415 0.165634ZM30.4165 15.1015C35.6862 18.1463 36.8337 18.928 36.3662 19.3395C36.0687 19.6275 32.8389 21.5613 29.2266 23.6186L22.6395 27.3629L22.427 19.6686C22.2995 15.3895 22.2995 11.6864 22.3845 11.3984C22.597 10.6578 22.937 10.8223 30.4165 15.1015Z" fill="white"/>
</svg>
