<svg width="38" height="38" viewBox="0 0 38 38" fill="none" xmlns="http://www.w3.org/2000/svg">
<path d="M16.9856 0.080616C13.0006 0.450966 9.1268 2.20642 5.97142 5.08033C4.83815 6.1099 3.32713 8.0135 2.51977 9.42083C-0.183783 14.1243 -0.739307 19.7313 0.98652 24.894C2.29015 28.7975 4.93444 32.2417 8.39351 34.5527C10.6082 36.0267 13.0821 37.0044 15.8375 37.4859C16.6893 37.6414 17.0375 37.6562 18.8744 37.6562C21.0965 37.6562 21.7261 37.5822 23.5038 37.1378C26.4962 36.3897 29.4145 34.8046 31.6514 32.7084C34.9179 29.6419 36.8734 25.9014 37.5474 21.4424C37.74 20.1832 37.74 17.5759 37.5474 16.2945C36.94 12.2059 35.2438 8.70235 32.4736 5.83584C30.3182 3.59893 27.8887 2.02866 25.0222 1.02871C22.5557 0.169502 19.7114 -0.163811 16.9856 0.080616ZM21.8001 2.13976C28.4664 3.38413 33.6735 8.24311 35.3253 14.7613C35.9401 17.1833 35.9623 20.2276 35.3846 22.6645C34.6735 25.7088 33.1995 28.4049 31.0367 30.6344C29.659 32.064 28.0516 33.2417 26.3628 34.0639C17.8596 38.2192 7.71947 34.7379 3.60859 26.2569C2.43088 23.82 1.9198 21.5831 1.9198 18.8499C1.9198 17.4056 2.00128 16.5389 2.25311 15.3686C3.69748 8.69494 8.87496 3.5619 15.5042 2.22864C16.8152 1.9694 17.2523 1.93237 19.1336 1.96199C20.6002 1.97681 21.1113 2.01384 21.8001 2.13976Z" fill="white"/>
<path d="M16.8741 2.90033C13.3632 3.34475 10.0078 4.9891 7.50427 7.48525C6.20064 8.79629 5.25995 10.1147 4.43037 11.8183C3.63042 13.4479 3.14896 15.033 2.90453 16.8181C2.7638 17.818 2.77861 20.0697 2.93416 21.1141C3.88966 27.573 8.55606 32.8023 14.8002 34.4096C16.3112 34.7948 17.2 34.9059 18.837 34.9059C20.4072 34.9133 21.3405 34.8022 22.6812 34.4763C25.0144 33.8986 27.3105 32.7431 29.0956 31.2469C33.8065 27.2989 35.836 21.3363 34.5324 15.27C34.0435 13.0257 32.7473 10.411 31.1918 8.55927C28.6216 5.48537 24.9181 3.44104 21.0072 2.92996C20.0813 2.81144 17.7481 2.79663 16.8741 2.90033ZM20.4591 6.93714C24.6144 7.54451 27.192 9.69253 28.5846 13.6997C28.7179 14.0923 28.8068 14.433 28.7771 14.4552C28.7253 14.5071 27.0217 15.0404 26.9106 15.0404C26.8809 15.0404 26.8291 14.9515 26.7995 14.833C26.555 13.8479 25.7329 12.2776 25.007 11.4332C23.7033 9.91474 21.6146 9.11479 18.9036 9.11479C16.5852 9.11479 14.9631 9.72957 13.541 11.1517C12.1633 12.5294 11.467 14.1515 11.1707 16.7069C10.7856 20.0327 11.3633 23.6103 12.5929 25.5139C13.8446 27.4545 15.9705 28.5433 18.6962 28.647C22.3775 28.7877 25.081 27.136 25.6958 24.388C25.918 23.3955 25.7255 22.3437 25.1773 21.5215C24.9181 21.1289 24.2811 20.4475 24.17 20.4475C24.133 20.4475 23.9848 20.8252 23.8367 21.2771C23.3552 22.7659 22.8589 23.5658 21.9997 24.2028C20.4739 25.3361 18.5629 25.5583 16.9556 24.7954C13.7187 23.2547 13.7928 18.8698 17.0815 17.618C17.7259 17.3736 18.6592 17.2032 20.0443 17.0847C20.7702 17.018 21.422 16.9662 21.4887 16.9662C21.7775 16.9588 21.8072 16.8699 21.6664 16.3959C21.4146 15.6033 20.8961 15.0256 20.1924 14.7737C19.8073 14.6404 18.874 14.6478 18.3851 14.7885C17.8889 14.9367 17.2889 15.2404 16.8074 15.5885C16.6075 15.7292 16.4075 15.8255 16.363 15.8033C16.0001 15.5811 14.9113 14.7959 14.9113 14.7515C14.9113 14.6182 15.3631 14.0849 15.8223 13.6627C16.7186 12.8405 17.6815 12.4924 19.0221 12.4998C20.5776 12.5072 21.5849 12.8479 22.4516 13.6701C23.096 14.2775 23.5108 15.0107 23.9404 16.2922C24.37 17.5662 24.57 17.8995 25.1922 18.3957C27.0735 19.8994 27.9772 21.7807 27.8513 23.9139C27.7327 25.9583 26.5106 28.0767 24.7625 29.2618C23.2145 30.3136 21.1924 30.8913 19.0592 30.8913C15.5483 30.8839 12.7188 29.4692 10.9337 26.8175C10.1782 25.6916 9.48194 23.7436 9.08196 21.6326C8.88938 20.603 8.88938 17.4032 9.08196 16.2996C9.64489 13.122 10.5708 11.085 12.2003 9.45551C14.252 7.40377 17.3037 6.4705 20.4591 6.93714Z" fill="white"/>
<path d="M18.7405 19.406C17.7998 19.4801 17.2814 19.7245 16.9629 20.2282C16.5332 20.9244 16.6369 21.8873 17.1999 22.391C17.6591 22.8058 18.2294 22.991 19.0961 22.991C19.7479 22.9984 19.8886 22.9762 20.2516 22.8058C21.2515 22.3317 21.8663 21.2207 21.8737 19.8652V19.406H21.1552C20.7552 19.406 20.2145 19.3912 19.9479 19.3764C19.6812 19.3615 19.1405 19.369 18.7405 19.406Z" fill="white"/>
</svg>
