<svg width="12" height="11" viewBox="0 0 12 11" fill="none" xmlns="http://www.w3.org/2000/svg">
<path d="M9.7746 3.9637C10.2293 3.17611 10.4566 2.78192 10.4226 2.45878C10.393 2.17692 10.2451 1.9211 10.0158 1.75452C9.75303 1.5636 9.2986 1.5636 8.38978 1.5636L3.53832 1.5636C2.6295 1.5636 2.17514 1.5636 1.91236 1.75452C1.68308 1.9211 1.53508 2.17692 1.50546 2.45878C1.47149 2.78192 1.69872 3.17611 2.15344 3.9637L4.57831 8.1637C5.03302 8.95129 5.26048 9.34502 5.55731 9.47717C5.81622 9.59245 6.11205 9.59245 6.37095 9.47717C6.66766 9.34507 6.89498 8.95134 7.34932 8.1644L9.7746 3.9637Z" fill="white" stroke="white" stroke-width="2" stroke-linecap="round" stroke-linejoin="round"/>
</svg>
