<svg width="38" height="38" viewBox="0 0 38 38" fill="none" xmlns="http://www.w3.org/2000/svg">
<path d="M17.4612 0.0520172C9.03775 0.642296 2.098 6.84819 0.27931 15.3833C-0.103573 17.186 -0.0876193 20.8394 0.295263 22.6581C0.853634 25.3223 1.69917 27.3484 3.19879 29.5818C6.16613 34.0488 10.9841 37.064 16.3444 37.8617C18.3386 38.1488 21.8005 37.9734 23.683 37.4788C30.0006 35.8356 35.0578 31.0974 37.068 24.9394C37.7699 22.7697 37.9613 21.4615 37.9454 18.7814C37.9294 16.4841 37.8816 16.0374 37.4349 14.3623C36.5415 10.9482 34.9142 8.0766 32.4574 5.61977C28.4212 1.55164 23.2682 -0.346817 17.4612 0.0520172ZM25.4698 9.65599C26.5706 10.1984 27.7033 11.2832 28.2297 12.3043C28.8838 13.6124 28.9796 14.6016 28.9157 19.579C28.8519 23.9503 28.836 24.2534 28.485 25.1308C27.9745 26.4231 26.6823 27.7791 25.406 28.3694L24.4009 28.832H18.9767H13.5526L12.4837 28.3056C11.1755 27.6674 9.979 26.4071 9.45254 25.1149C9.10157 24.2215 9.08561 24.0779 9.08561 19.0207C9.08561 13.9794 9.10157 13.8039 9.45254 12.9264C9.81947 12.0012 10.8884 10.677 11.7339 10.0708C11.9891 9.89529 12.5794 9.60813 13.0421 9.43264C13.8078 9.16144 14.3024 9.12953 19.216 9.17739L24.5605 9.2093L25.4698 9.65599Z" fill="white"/>
<path d="M13.5206 11.2822C12.6911 11.6332 11.6062 12.7499 11.2872 13.5635C11.0319 14.2336 11 14.8717 11 19.0994C11 24.38 11.016 24.4438 12.037 25.6243C12.3241 25.9434 12.8666 26.3742 13.2175 26.5656C13.8397 26.9006 14.079 26.9166 18.7693 26.9644C23.4915 27.0123 23.6989 26.9963 24.4647 26.6613C25.5495 26.1987 26.4748 25.1776 26.7939 24.0609C27.0173 23.327 27.0492 22.4337 27.0013 18.5889C26.9534 14.2017 26.9375 13.9624 26.6025 13.3402C26.1398 12.4628 25.3581 11.697 24.5604 11.346C23.9861 11.0748 23.4277 11.0429 18.9767 11.0588C15.116 11.0588 13.9195 11.1067 13.5206 11.2822ZM25.0709 13.053C25.39 13.3721 25.4538 13.5476 25.3741 13.9624C25.2305 14.6643 24.9114 14.9355 24.2254 14.9355C23.1725 14.9355 22.662 13.7709 23.3958 13.0052C23.8585 12.5106 24.5445 12.5266 25.0709 13.053ZM21.1943 14.6165C24.5285 16.2437 24.9114 20.8224 21.9122 22.9601C18.1152 25.6722 13.042 21.987 14.43 17.5359C15.3234 14.6484 18.4822 13.2923 21.1943 14.6165Z" fill="white"/>
<path d="M17.7005 16.249C16.5678 16.8711 16.0254 17.7805 16.0254 19.0727C16.0254 21.4338 18.6737 22.8696 20.6998 21.5934C22.4865 20.4447 22.5823 17.8284 20.8752 16.5202C20.3966 16.1532 20.0935 16.0735 19.232 16.0416C18.4822 16.0097 18.0355 16.0575 17.7005 16.249Z" fill="white"/>
</svg>
