<svg width="115" height="45" viewBox="0 0 115 45" fill="none" xmlns="http://www.w3.org/2000/svg">
<path fill-rule="evenodd" clip-rule="evenodd" d="M93.5195 33.8263C92.8935 33.8263 92.3318 33.8968 91.8075 33.3223C91.6831 33.1859 91.595 33.085 91.5066 32.8998C91.2211 32.3022 91.3282 31.5616 91.6347 30.9917C92.2328 29.8794 93.7104 29.2613 94.6612 29.6995C95.0205 29.8651 95.2393 30.0431 95.4452 30.3627L95.5121 30.4768C95.9278 31.3314 95.6146 32.3949 94.979 33.0247C94.6266 33.3741 93.9042 33.8263 93.5195 33.8263ZM115 14.7195V14.8313C114.992 16.0967 115 17.3647 115 18.6303V18.6822V19.2561C114.993 19.3402 114.972 19.3812 114.911 19.7618C114.788 20.5223 114.698 21.2002 114.53 21.9592C114.269 23.1374 113.557 28.0273 113.238 28.8078C113.187 28.9324 113.155 29.0493 113.103 29.17C113.044 29.3041 113.012 29.3742 112.944 29.5087L112.477 30.4441C111.824 31.6301 110.916 32.6799 109.947 33.6124C109.786 33.7678 109.598 33.8933 109.428 34.0424C109.245 34.2023 109.082 34.3182 108.895 34.4597C108.782 34.5454 108.729 34.5741 108.599 34.6608C108.497 34.7286 108.446 34.7791 108.334 34.8478L106.079 35.94C105.547 36.1312 105.065 36.1876 104.489 36.2943C103.753 36.4306 102.958 36.359 102.202 36.359H83.1183C82.188 36.359 80.6655 36.4065 79.7651 36.3637C79.4564 36.349 79.5493 36.162 79.6345 35.7241C79.6743 35.5191 79.6982 35.5647 79.7245 35.362L80.2244 32.5151C80.3197 32.1958 80.3833 31.6094 80.4363 31.2799C80.4664 31.0935 80.4902 31.0334 80.5215 30.8675L81.0006 28.0452C81.0371 27.7749 81.0945 27.5285 81.1419 27.2367L81.4259 25.576C81.473 25.2632 81.5303 25.0315 81.5675 24.7678L81.849 23.1499C81.9667 22.266 82.1953 21.2104 82.3505 20.3047C82.3764 20.1536 82.3773 20.0749 82.4014 19.9033L82.6414 18.6509C82.6621 18.5155 82.6653 18.3799 82.6923 18.2495L83.2789 15.0371C83.308 14.9055 83.3278 14.7174 83.3401 14.6009L83.6874 12.5964C83.7462 12.3114 83.7679 12.0719 83.8228 11.7821C83.9265 11.2351 84.0005 10.677 84.1015 10.1613C84.3352 8.96844 84.1764 8.8098 84.6521 8.81253C85.292 8.81624 85.9318 8.81623 86.5719 8.81623L86.6457 8.86126L87.2967 11.0597C87.3076 11.1007 87.3333 11.1891 87.3494 11.233L87.5858 11.9915C87.6287 12.1524 87.645 12.1558 87.6857 12.2987L89.0773 16.9221C89.1471 17.1508 89.2043 17.3502 89.2591 17.5544C89.3021 17.715 89.3183 17.7188 89.3589 17.8616C89.3917 17.9769 89.4127 18.0715 89.4494 18.1781C89.4863 18.2846 89.5071 18.3792 89.5399 18.4946C89.5772 18.6257 89.5931 18.635 89.6303 18.7661L90.2957 20.9498C90.3362 21.0659 90.3483 21.1523 90.3869 21.2657L90.9536 23.1412C90.9917 23.2566 91.0051 23.3397 91.0421 23.4597L92.615 28.6705C94.1677 28.6705 95.7203 28.6705 97.2729 28.6705C98.7562 28.6705 100.428 28.7436 101.887 28.6719L102.849 28.4579L104.806 27.3853C104.816 27.3765 104.843 27.3502 104.853 27.3412C104.859 27.3349 104.869 27.3256 104.876 27.3193L105.434 26.7465C105.44 26.7392 105.448 26.7291 105.454 26.722C105.914 26.1825 106.727 24.8435 106.77 24.3289C103.378 24.3289 99.9862 24.3289 96.5946 24.3289C95.291 24.3289 95.356 24.4454 95.2466 24.0035L94.8402 22.7366C94.6012 21.9201 94.4573 22.0675 95.5092 22.0675H107.312V20.7107H94.1526C94.1338 20.4853 93.9808 20.1501 93.9107 19.9125C93.3908 18.1514 93.1027 18.4946 94.6953 18.4946H106.996C106.915 18.3253 106.923 18.1915 106.846 18.0114C106.092 16.2454 105.632 15.2963 103.71 14.3183C103.034 13.9739 101.919 13.7987 101.164 13.7893C98.1617 13.7522 94.9029 13.7911 91.8914 13.7911L90.3539 8.86145C92.9014 8.86145 95.4489 8.86145 97.9965 8.86145C100.576 8.86145 103.012 8.90665 105.594 8.90665C106.663 8.90665 108.454 8.80134 109.373 8.97142L110.165 9.12891C110.892 9.30649 111.526 9.59739 112.149 9.99431C112.238 10.0508 112.342 10.1329 112.433 10.2078C112.534 10.2908 112.611 10.3405 112.706 10.4322L113.179 10.9086C113.877 11.6396 114.338 12.5103 114.704 13.4538C114.723 13.5024 114.743 13.5824 114.756 13.6282C114.874 14.0489 114.993 14.2402 115 14.7195ZM101.931 33.8263C101.404 33.8263 101.253 33.8814 100.882 33.7444C100.622 33.6481 100.357 33.4883 100.185 33.2657C99.6848 32.6186 99.6363 31.8635 100.007 31.1333C100.101 30.9485 100.124 30.8958 100.239 30.732C101.083 29.5269 102.85 29.1116 103.737 30.1655C103.768 30.2025 103.81 30.2512 103.838 30.2907C104.254 30.8807 104.215 31.6263 103.929 32.2516C103.793 32.5495 103.651 32.7653 103.442 32.9859L103.283 33.1435C103.276 33.1499 103.266 33.1589 103.26 33.1652C102.937 33.4598 102.283 33.8263 101.931 33.8263Z" fill="#FEFEFE"/>
<path fill-rule="evenodd" clip-rule="evenodd" d="M12.391 28.8098C11.6899 28.8098 11.1258 28.8691 10.4458 28.6294C10.331 28.5891 10.2046 28.5373 10.092 28.4859L9.16018 27.9704C9.15252 27.9649 9.14194 27.9568 9.13428 27.9511L8.58101 27.4642C7.96465 26.848 7.52005 26.0556 7.37217 25.1907C7.33869 24.9945 7.28088 24.9371 7.28088 24.7393C7.28088 23.9637 7.22403 24.0297 7.36847 23.3798C7.52419 22.6794 7.47898 22.8053 7.78954 22.1727C7.85855 22.0321 7.89098 21.9497 7.97902 21.8195C8.24648 21.4236 8.26719 21.4595 8.45658 21.2117C8.82116 20.7348 9.80087 20.1254 10.3952 19.9393C11.1198 19.7125 12.094 19.641 12.8234 19.8294C12.9664 19.8664 13.1226 19.9047 13.2499 19.9458C13.3831 19.9887 13.3326 19.9798 13.441 20.0259C13.7851 20.172 14.0919 20.2955 14.3945 20.5196C14.5115 20.6063 14.6208 20.6806 14.7295 20.7726C14.8474 20.8725 14.9066 20.9542 15.0308 21.0592C15.0752 21.0967 15.063 21.0838 15.1052 21.1203C15.2662 21.2594 15.4153 21.492 15.5503 21.6703C16.2291 22.5667 16.5645 24.0871 16.272 25.2288C16.2407 25.351 16.2069 25.5158 16.1613 25.6608C15.9999 26.1739 15.6456 26.8493 15.2899 27.2315C15.0282 27.5125 14.9618 27.5924 14.6323 27.8402C14.4993 27.9403 14.4619 27.9909 14.3277 28.0783C14.0082 28.2865 13.6203 28.4845 13.2619 28.5953C13.1172 28.64 12.5642 28.8098 12.391 28.8098ZM0 21.664V26.865C0 27.022 0.095089 27.2339 0.123378 27.3749C0.162682 27.571 0.216001 27.6976 0.261739 27.8697C0.505146 28.7859 0.971776 29.7327 1.44916 30.5263C1.60655 30.7878 1.79382 31.0176 1.9588 31.283C2.02851 31.3952 2.00938 31.3721 2.08782 31.4705L2.36815 31.8233C2.82553 32.3431 3.26132 32.8857 3.79449 33.3366C3.80162 33.3426 3.81193 33.3512 3.81907 33.3573L4.85113 34.1793C5.33071 34.5401 5.90909 34.8502 6.44473 35.1183C6.61614 35.2041 6.74074 35.2538 6.91012 35.3312L8.52355 35.9339C9.1608 36.1255 9.77513 36.1951 10.4283 36.2902C11.3256 36.4208 12.3726 36.4037 13.2631 36.285L14.7916 36.0045C14.9179 35.9734 14.9555 35.9744 15.086 35.9371C15.2721 35.8841 15.4586 35.827 15.6337 35.7613L17.2009 35.1125C17.7457 34.8287 18.2986 34.5474 18.7938 34.1729L19.206 33.8615C19.2919 33.7918 19.317 33.7671 19.4067 33.7004C19.8371 33.3802 20.1876 33.0198 20.565 32.6427L21.8515 31.0349C21.9569 30.8768 22.0264 30.7592 22.1347 30.5944C22.2151 30.472 22.1957 30.5147 22.2733 30.3713L22.5301 29.9045C22.5693 29.8236 22.6074 29.7542 22.6512 29.6637C22.7059 29.5504 22.7146 29.5423 22.7726 29.4234L23.0089 28.8908C23.0508 28.7897 23.0705 28.7208 23.1101 28.6301C23.1604 28.5148 23.1617 28.5158 23.2103 28.3686C23.243 28.269 23.2661 28.2316 23.3061 28.1026C24.2844 24.9488 24.0817 21.8414 22.6515 18.865C22.194 17.9128 21.4868 16.8469 20.7457 16.1126C20.6816 16.049 20.6515 16.0199 20.5898 15.9519L20.0501 15.4062C19.898 15.2681 19.8232 15.1948 19.6652 15.0676C18.8135 14.3816 18.0784 13.8943 17.1009 13.3808L14.7495 12.5213C14.0702 12.326 12.6022 12.1768 11.8948 12.1641L10.5167 12.2368C10.1339 12.292 9.66401 12.3315 9.31679 12.4388C9.12722 12.4974 8.92717 12.5073 8.7281 12.5736C8.63089 12.6059 8.55502 12.6148 8.44045 12.6478L7.66211 12.9096C6.83971 13.1669 5.99131 13.6219 5.27237 14.0925L4.05287 14.9986C4.04291 15.0071 4.01427 15.0318 4.00423 15.0403L2.59842 16.4384C2.59217 16.4454 2.58353 16.4556 2.57736 16.4626L2.29333 16.8117C1.37152 18.0491 0.678666 19.3197 0.235651 20.8142C0.175989 21.0154 0 21.4777 0 21.664Z" fill="#FEFEFE"/>
<path fill-rule="evenodd" clip-rule="evenodd" d="M48.6138 31.711L47.2362 31.5509L46.6567 31.3165C46.358 31.1665 45.9511 30.8392 45.7163 30.5836C45.71 30.5768 45.7009 30.5668 45.6947 30.5599C45.6885 30.553 45.6798 30.5428 45.6736 30.5358C45.3715 30.1909 45.0679 29.7149 44.9411 29.2785C44.9264 29.2279 44.9232 29.197 44.9049 29.1338C44.6873 28.3854 44.7538 27.7759 44.9542 27.0562C44.9931 26.9169 45.0288 26.896 45.0931 26.7428C45.2862 26.2825 45.4845 26.0455 45.8212 25.7071C45.9004 25.6275 45.947 25.5813 46.028 25.5069L46.0752 25.4636C46.2841 25.2734 46.5981 25.0836 46.8497 24.972C47.7782 24.5597 48.7782 24.5733 49.6985 24.9728C50.2147 25.1969 50.6855 25.5466 51.0304 25.9926C51.0743 26.0492 51.0841 26.065 51.127 26.1221L51.4596 26.6489C51.6102 26.9307 51.6045 27.0141 51.6898 27.2779C51.7702 27.5269 51.7695 27.717 51.7864 28.041C51.7959 28.2212 51.7892 28.1418 51.7812 28.3625C51.7601 28.9513 51.6309 29.5567 51.2891 30.0449C50.9486 30.5314 50.6071 30.8916 50.1014 31.2087L49.5204 31.487C49.3094 31.5579 48.8266 31.711 48.6138 31.711ZM48.1163 44.4196C48.3582 44.4196 48.5374 44.4295 48.7557 44.2902L53.4135 38.6368C53.5419 38.4773 53.6306 38.3397 53.7504 38.1596L55.1134 36.2212C55.2291 36.0617 55.3224 35.8934 55.4333 35.7271L56.0756 34.696C56.4024 34.2048 56.7745 33.5192 57.0343 32.9864L57.1699 32.7151C57.7004 31.6303 58.4213 30.0815 58.5186 28.8629C58.5682 28.2435 58.6492 28.011 58.5546 27.3773C58.5026 27.0289 58.5026 26.6209 58.4113 26.2544C58.3637 26.0637 58.3683 25.8999 58.3143 25.7182C58.2732 25.5803 58.278 25.6336 58.2422 25.4737L58.0985 24.9842C57.8822 24.1395 57.3413 23.051 56.8383 22.355L56.176 21.4798C55.5706 20.7854 54.9078 20.1962 54.1703 19.6414C52.5719 18.4392 50.2214 17.7812 48.252 17.7812C46.4685 17.7812 44.6122 18.3053 43.0876 19.2196C42.9285 19.3149 42.7923 19.3915 42.6351 19.4906C41.6838 20.0896 40.8412 20.9153 40.1508 21.8C39.541 22.5814 39.0963 23.4505 38.6939 24.3682C38.4573 24.9078 38.2944 25.4947 38.1992 26.0895C38.0096 27.2749 37.9265 27.8245 38.0831 29.0816C38.1366 29.511 38.4973 30.6602 38.6658 31.0768C38.7312 31.2384 38.8202 31.4259 38.8845 31.5818C39.231 32.4213 39.6355 33.2528 40.1029 34.0266L40.7356 35.0672C41.0876 35.6635 41.7108 36.6351 42.1141 37.171C42.3331 37.4622 42.5371 37.7488 42.7343 38.0431L44.1529 39.9261C44.2258 40.0225 44.2292 40.0445 44.3073 40.1334L47.0488 43.452C47.0888 43.4952 47.0953 43.5035 47.1351 43.5466C47.3399 43.7679 47.4991 44.0221 47.7273 44.2207C47.8251 44.3059 48.012 44.4196 48.1163 44.4196Z" fill="#FEFEFE"/>
<path fill-rule="evenodd" clip-rule="evenodd" d="M59.1049 23.247C59.1049 23.9407 59.2103 24.6408 59.3923 25.1755C59.6525 25.9394 60.1979 26.553 60.7661 27.1032C61.148 27.4728 61.6789 27.7435 62.1674 27.963C62.3203 28.0318 62.3871 28.0761 62.54 28.1333C62.5982 28.1551 62.5962 28.1533 62.6383 28.1706L63.3558 28.448C63.4795 28.493 63.6145 28.5489 63.75 28.5965L67.6867 29.6343C67.7646 29.6581 67.8105 29.6803 67.8886 29.7038C67.9837 29.7326 68.0456 29.7387 68.1374 29.7714L68.5248 29.9268C69.4103 30.2926 69.5426 31.2651 68.9063 31.7829C68.3945 32.1993 67.5472 32.1113 66.9283 32.1113C66.6124 32.1113 66.0472 31.9214 65.7771 31.7702L65.3709 31.4529C65.3643 31.4463 65.3549 31.4367 65.3485 31.43C65.1416 31.2155 64.961 30.955 64.8841 30.6733C64.8465 30.5356 64.8585 30.3475 64.6672 30.3475H58.7431C58.4931 30.3475 58.6673 30.7937 58.6978 30.9807C58.8243 31.7558 59.126 32.5259 59.5635 33.1452C59.5689 33.1529 59.5771 33.1634 59.5828 33.1711L60.1131 33.8618C60.4158 34.2234 60.7729 34.4828 61.1356 34.784C61.1428 34.79 61.1527 34.799 61.1599 34.8049L61.7983 35.2066C62.8295 35.7853 63.5482 35.9269 64.7024 36.1917C65.543 36.3845 67.4373 36.3626 68.285 36.3626L69.811 36.2153C69.8991 36.2025 70.0367 36.1609 70.1445 36.1419C70.7013 36.0443 71.2562 35.9056 71.7958 35.7128C72.3021 35.5321 72.7311 35.3006 73.1839 35.0208L73.6715 34.6491C73.6976 34.625 73.7368 34.592 73.7689 34.5655L73.8929 34.4634C73.9001 34.4574 73.9104 34.4489 73.9176 34.4429C73.9247 34.4368 73.9349 34.4283 73.9421 34.4222C75.5846 33.0301 76.0689 30.5121 75.3797 28.4533C75.259 28.0928 75.1288 27.8033 74.9266 27.5044L74.4343 26.8661C74.3981 26.823 74.4299 26.8565 74.3714 26.7932L74.3268 26.7474C74.3202 26.7408 74.3105 26.7316 74.304 26.725C74.0125 26.4321 73.6913 26.1949 73.3412 25.9693L72.6114 25.5685C72.3527 25.4399 72.114 25.3205 71.8296 25.2197L70.7962 24.8512C70.7095 24.8223 70.6506 24.8113 70.5864 24.7897C70.0596 24.6122 69.5655 24.5123 69.0211 24.3652C68.1521 24.1302 66.3962 23.8386 65.7514 23.3839C64.762 22.6861 65.5616 21.6189 66.4761 21.6189C66.9972 21.6189 67.5333 21.573 68.0414 21.7721C68.6958 22.0285 69.0328 22.4843 69.1895 23.1565C69.6921 23.2736 74.1379 23.2018 75.0231 23.2018C75.2984 23.2018 75.1536 22.8068 75.1204 22.607L74.8435 21.6175C74.6935 21.212 74.4803 20.8507 74.2407 20.5018C74.1723 20.402 74.1249 20.3387 74.0479 20.2424L73.2034 19.3685C72.3364 18.5558 70.7589 17.9232 69.6349 17.7815C68.6759 17.6605 67.8949 17.5938 66.8831 17.5938C66.3447 17.5938 65.7602 17.6168 65.2919 17.6757C65.0189 17.7102 64.8254 17.7541 64.5753 17.7732C63.9215 17.8232 63.1753 18.0688 62.58 18.3103C61.6379 18.6925 60.8621 19.3353 60.2176 20.1086C60.1203 20.2252 60.1249 20.2271 60.052 20.35L59.5806 21.1449C59.263 21.7793 59.1049 22.5302 59.1049 23.247Z" fill="#FEFEFE"/>
<path fill-rule="evenodd" clip-rule="evenodd" d="M32.6949 21.1674C32.6002 20.7611 32.6756 20.1966 32.6499 19.72L32.5994 19.0016C32.5842 18.8629 32.5555 18.4538 32.3784 18.4538H26.002V36.2278C26.002 36.332 26.0334 36.3634 26.1377 36.3634H32.6044C32.7876 36.3634 32.7458 36.1964 32.7428 36.0043L32.7401 32.2931C32.7401 30.666 32.6399 29.2492 32.7884 27.6379L33.0811 26.3476C33.2741 25.852 33.5032 25.4035 33.9046 25.0456C34.8917 24.165 36.7163 24.1524 38.1668 24.1524V18.0469C37.4077 18.0469 36.9107 18.0896 36.1997 18.2957C35.7551 18.4245 35.5554 18.4638 35.113 18.7013C34.6368 18.957 34.157 19.3075 33.7684 19.6631C33.6559 19.7661 33.6331 19.8391 33.5202 19.9576C33.3531 20.1333 33.2228 20.3064 33.0837 20.516L32.8016 21.0028C32.7699 21.0632 32.7824 21.0428 32.7526 21.0895C32.6983 21.1743 32.7348 21.1215 32.6949 21.1674Z" fill="#FEFEFE"/>
<path fill-rule="evenodd" clip-rule="evenodd" d="M0 0V16.6885C0.0655665 16.6131 0.0155986 16.6696 0.0749961 16.5826L0.526208 15.9483C0.531848 15.9407 0.539603 15.9298 0.545243 15.9222L1.03928 15.2856C1.43656 14.7592 2.18969 14.0841 2.67906 13.624C2.75882 13.5491 2.81962 13.5137 2.90696 13.4448L3.90825 12.6825C5.41514 11.5957 7.00971 11.172 7.4165 10.8996C7.4165 7.86032 7.45387 4.79826 7.41835 1.76202C7.41236 1.25203 7.29092 0.863038 6.99411 0.512909C6.82032 0.307838 6.56388 0.171065 6.30778 0.0685738C6.21287 0.0305911 6.03776 0.0102227 5.83198 0H4.61274H4.54066H4.46857H4.39648H4.32448H4.25239H4.1803H4.10821H4.03613H3.96404H3.89204H3.81995H3.74787H3.67578H3.60369H3.5316H3.45951H3.38751H3.31542H3.24334H3.17125H3.09916H3.02708H2.95508H2.88299H2.8109H2.73881H2.66672H2.59472H2.52263H2.45055H2.37846H2.30637H2.23429H2.1622H2.0902H2.01811H1.94602H1.87393H1.80184H1.72976H1.65776H1.58567H1.51358H1.4415H1.36941H1.29732H1.22532H1.15323H1.08114H1.00905H0.936967H0.864879H0.79288H0.720791H0.648704H0.576616H0.504527H0.432528H0.360441H0.288353H0.216264H0.144177H0.0720894H0Z" fill="#FEFEFE"/>
<path fill-rule="evenodd" clip-rule="evenodd" d="M86.5724 8.81735L86.6461 8.86237L90.3543 8.86256C90.3543 8.624 90.185 8.25051 90.105 7.98119L89.5734 6.25161C89.5434 6.16066 89.5463 6.133 89.5205 6.03315C89.4772 5.86606 89.4464 5.84693 89.4086 5.69271C89.3656 5.51663 89.3575 5.50262 89.3017 5.34743L89.0976 4.64699C89.053 4.47991 89.0372 4.47224 88.9878 4.30454L88.6451 3.24526C88.0896 2.05087 87.0044 2.21435 86.013 2.21435C84.792 2.21435 83.571 2.21435 82.3499 2.21435C81.1665 2.21435 79.8463 2.15803 78.6812 2.20853C78.3818 2.22157 78.4604 2.27701 78.4608 2.89267L78.4562 5.65613C78.4839 5.91726 78.5707 5.83257 79.1844 5.83239H85.6512L86.5048 8.5957C86.5416 8.71943 86.5194 8.68806 86.5724 8.81735Z" fill="#FEFEFE"/>
</svg>
