<svg width="26" height="22" viewBox="0 0 26 22" fill="none" xmlns="http://www.w3.org/2000/svg">
<path d="M18.6656 13.8059H17.5255L17.1214 13.4681C18.5357 12.0422 19.3873 10.191 19.3873 8.17719C19.3873 3.68675 15.1874 0.046875 10.0061 0.046875C4.82486 0.046875 0.625 3.68675 0.625 8.17719C0.625 12.6676 4.82486 16.3075 10.0061 16.3075C12.3298 16.3075 14.4658 15.5695 16.1111 14.3437L16.5008 14.6939V15.6821L23.717 21.9237L25.8675 20.06L18.6656 13.8059ZM10.0061 13.8059C6.41244 13.8059 3.5115 11.2917 3.5115 8.17719C3.5115 5.06265 6.41244 2.54851 10.0061 2.54851C13.5998 2.54851 16.5008 5.06265 16.5008 8.17719C16.5008 11.2917 13.5998 13.8059 10.0061 13.8059Z" fill="#1A4C6E" fill-opacity="0.68"/>
</svg>
